<?xml version="1.0" encoding="UTF-8" standalone="yes"?><svg xmlns="http://www.w3.org/2000/svg" xmlns:xlink="http://www.w3.org/1999/xlink" height="199px" style="width:540px;height:199px;" version="1.1" viewBox="0 0 540 199" width="540px"><defs/><g><text fill="#000000" font-family="Default" font-size="12" font-weight="bold" lengthAdjust="spacingAndGlyphs" textLength="9" x="16" y="17.1387">./</text><text fill="#000000" font-family="Default" font-size="12" lengthAdjust="spacingAndGlyphs" textLength="74" x="26" y="31.1074">README.md</text><text fill="#000000" font-family="Default" font-size="12" font-weight="bold" lengthAdjust="spacingAndGlyphs" textLength="25" x="26" y="45.0762">f23/</text><text fill="#000000" font-family="Default" font-size="12" lengthAdjust="spacingAndGlyphs" textLength="201" x="198" y="45.0762">&lt;-- Fedora image build directory</text><text fill="#000000" font-family="Default" font-size="12" lengthAdjust="spacingAndGlyphs" textLength="62" x="46" y="59.0449">Dockerfile</text><text fill="#000000" font-family="Default" font-size="12" lengthAdjust="spacingAndGlyphs" textLength="94" x="46" y="73.0137">zz-dd-colorls.sh</text><text fill="#000000" font-family="Default" font-size="12" lengthAdjust="spacingAndGlyphs" textLength="56" x="46" y="86.9824">other file</text><text fill="#000000" font-family="monospaced" font-size="12" font-style="italic" lengthAdjust="spacingAndGlyphs" textLength="84" x="26" y="100.9512">mkdf-loff.sh</text><text fill="#000000" font-family="Default" font-size="12" lengthAdjust="spacingAndGlyphs" textLength="312" x="198" y="100.9512">&lt;-- shell script to create the LibreOffice Dockerfile</text><text fill="#000000" font-family="Default" font-size="12" font-weight="bold" lengthAdjust="spacingAndGlyphs" textLength="75" x="26" y="114.9199">libreoffice/</text><text fill="#000000" font-family="Default" font-size="12" lengthAdjust="spacingAndGlyphs" textLength="222" x="198" y="114.9199">&lt;-- LibreOffice iamge build directory</text><text fill="#000000" font-family="Default" font-size="12" lengthAdjust="spacingAndGlyphs" textLength="62" x="46" y="128.8887">Dockerfile</text><text fill="#000000" font-family="Default" font-size="12" font-weight="bold" lengthAdjust="spacingAndGlyphs" textLength="162" x="26" y="142.8574">&lt;future command dir&gt;/</text><text fill="#000000" font-family="Default" font-size="12" lengthAdjust="spacingAndGlyphs" textLength="276" x="198" y="142.8574">&lt;-- Other commands iamge build directories</text><text fill="#000000" font-family="Default" font-size="12" lengthAdjust="spacingAndGlyphs" textLength="0" x="30" y="156.8262"/><text fill="#000000" font-family="Default" font-size="12" font-weight="bold" lengthAdjust="spacingAndGlyphs" textLength="162" x="26" y="170.7949">&lt;future command dir&gt;/</text><text fill="#000000" font-family="Default" font-size="12" font-weight="bold" lengthAdjust="spacingAndGlyphs" textLength="92" x="26" y="184.7637">usr-local-bin/</text><text fill="#000000" font-family="Default" font-size="12" lengthAdjust="spacingAndGlyphs" textLength="341" x="198" y="184.7637">&lt;-- directory containing commands to run your images</text><text fill="#000000" font-family="Default" font-size="12" lengthAdjust="spacingAndGlyphs" textLength="0" x="20" y="198.7324"/><rect fill="none" height="2" style="stroke: #888888; stroke-width: 1.0;" width="2" x="9" y="11.9844"/><line style="stroke: #888888; stroke-width: 1.0;" x1="10" x2="10" y1="14.9844" y2="26.9531"/><line style="stroke: #888888; stroke-width: 1.0;" x1="10" x2="18" y1="26.9531" y2="26.9531"/><rect fill="none" height="2" style="stroke: #888888; stroke-width: 1.0;" width="2" x="19" y="39.9219"/><line style="stroke: #888888; stroke-width: 1.0;" x1="10" x2="10" y1="14.9844" y2="40.9219"/><line style="stroke: #888888; stroke-width: 1.0;" x1="10" x2="18" y1="40.9219" y2="40.9219"/><line style="stroke: #888888; stroke-width: 1.0;" x1="20" x2="20" y1="42.9219" y2="54.8906"/><line style="stroke: #888888; stroke-width: 1.0;" x1="20" x2="38" y1="54.8906" y2="54.8906"/><line style="stroke: #888888; stroke-width: 1.0;" x1="20" x2="20" y1="42.9219" y2="68.8594"/><line style="stroke: #888888; stroke-width: 1.0;" x1="20" x2="38" y1="68.8594" y2="68.8594"/><line style="stroke: #888888; stroke-width: 1.0;" x1="20" x2="20" y1="42.9219" y2="82.8281"/><line style="stroke: #888888; stroke-width: 1.0;" x1="20" x2="38" y1="82.8281" y2="82.8281"/><line style="stroke: #888888; stroke-width: 1.0;" x1="10" x2="10" y1="14.9844" y2="96.7969"/><line style="stroke: #888888; stroke-width: 1.0;" x1="10" x2="18" y1="96.7969" y2="96.7969"/><rect fill="none" height="2" style="stroke: #888888; stroke-width: 1.0;" width="2" x="19" y="109.7656"/><line style="stroke: #888888; stroke-width: 1.0;" x1="10" x2="10" y1="14.9844" y2="110.7656"/><line style="stroke: #888888; stroke-width: 1.0;" x1="10" x2="18" y1="110.7656" y2="110.7656"/><line style="stroke: #888888; stroke-width: 1.0;" x1="20" x2="20" y1="112.7656" y2="124.7344"/><line style="stroke: #888888; stroke-width: 1.0;" x1="20" x2="38" y1="124.7344" y2="124.7344"/><line style="stroke: #888888; stroke-width: 1.0;" x1="10" x2="10" y1="14.9844" y2="138.7031"/><line style="stroke: #888888; stroke-width: 1.0;" x1="10" x2="18" y1="138.7031" y2="138.7031"/><line style="stroke: #888888; stroke-width: 1.0;" x1="10" x2="10" y1="14.9844" y2="152.6719"/><line style="stroke: #888888; stroke-width: 1.0;" x1="10" x2="18" y1="152.6719" y2="152.6719"/><line style="stroke: #888888; stroke-width: 1.0;" x1="10" x2="10" y1="14.9844" y2="166.6406"/><line style="stroke: #888888; stroke-width: 1.0;" x1="10" x2="18" y1="166.6406" y2="166.6406"/><line style="stroke: #888888; stroke-width: 1.0;" x1="10" x2="10" y1="14.9844" y2="180.6094"/><line style="stroke: #888888; stroke-width: 1.0;" x1="10" x2="18" y1="180.6094" y2="180.6094"/></g></svg>